<mxfile host="app.diagrams.net" modified="2022-01-26T12:45:00.111Z" agent="5.0 (Windows NT 10.0; Win64; x64) AppleWebKit/537.36 (KHTML, like Gecko) Chrome/97.0.4692.99 Safari/537.36" etag="SxWZ3-Hzw09QKvD6GvCA" version="16.2.2" type="github">
  <diagram id="I6NLswIqLNYlrb-g64wH" name="Page-1">
    <mxGraphModel dx="2015" dy="876" grid="1" gridSize="10" guides="1" tooltips="1" connect="1" arrows="1" fold="1" page="1" pageScale="1" pageWidth="827" pageHeight="1169" math="0" shadow="0">
      <root>
        <mxCell id="0" />
        <mxCell id="1" parent="0" />
        <mxCell id="W0oyuHeiYakJKSwITs1g-5" style="edgeStyle=orthogonalEdgeStyle;rounded=0;orthogonalLoop=1;jettySize=auto;html=1;" parent="1" source="W0oyuHeiYakJKSwITs1g-1" target="PiK40fZT5rMsHauc214G-2" edge="1">
          <mxGeometry relative="1" as="geometry">
            <mxPoint x="400" y="240" as="targetPoint" />
          </mxGeometry>
        </mxCell>
        <mxCell id="PiK40fZT5rMsHauc214G-1" value="0800 643 0883&lt;br style=&quot;font-size: 13px;&quot;&gt;&lt;br style=&quot;font-size: 13px;&quot;&gt;60 canais&lt;br style=&quot;font-size: 13px;&quot;&gt;25 DDRs" style="edgeLabel;html=1;align=center;verticalAlign=middle;resizable=0;points=[];fontStyle=1;fontSize=13;" parent="W0oyuHeiYakJKSwITs1g-5" vertex="1" connectable="0">
          <mxGeometry x="-0.72" relative="1" as="geometry">
            <mxPoint x="52" as="offset" />
          </mxGeometry>
        </mxCell>
        <mxCell id="W0oyuHeiYakJKSwITs1g-1" value="Sercomtel" style="ellipse;shape=cloud;whiteSpace=wrap;html=1;fillColor=#6a00ff;fontColor=#ffffff;strokeColor=#3700CC;fontSize=14;fontStyle=1" parent="1" vertex="1">
          <mxGeometry x="80" y="200" width="120" height="80" as="geometry" />
        </mxCell>
        <mxCell id="PiK40fZT5rMsHauc214G-2" value="&lt;b&gt;&lt;font style=&quot;font-size: 17px&quot; color=&quot;#000000&quot;&gt;3CX&lt;/font&gt;&lt;/b&gt;" style="sketch=0;pointerEvents=1;shadow=0;dashed=0;html=1;strokeColor=#006EAF;fillColor=#1ba1e2;labelPosition=center;verticalLabelPosition=bottom;verticalAlign=top;outlineConnect=0;align=left;shape=mxgraph.office.devices.ip_pbx;fontColor=#ffffff;" parent="1" vertex="1">
          <mxGeometry x="450.87" y="200" width="130" height="80" as="geometry" />
        </mxCell>
        <mxCell id="PiK40fZT5rMsHauc214G-5" style="edgeStyle=orthogonalEdgeStyle;rounded=0;orthogonalLoop=1;jettySize=auto;html=1;entryX=0.5;entryY=1;entryDx=0;entryDy=0;fontSize=17;fontColor=#000000;" parent="1" source="PiK40fZT5rMsHauc214G-3" target="PiK40fZT5rMsHauc214G-4" edge="1">
          <mxGeometry relative="1" as="geometry" />
        </mxCell>
        <mxCell id="PiK40fZT5rMsHauc214G-3" value="" style="points=[[0.59,0,0],[0.87,0.015,0],[0.88,0.3,0],[0.99,0.99,0],[0.5,1,0],[0.01,0.99,0],[0.075,0.5,0],[0.17,0.115,0]];verticalLabelPosition=bottom;sketch=0;html=1;verticalAlign=top;aspect=fixed;align=center;pointerEvents=1;shape=mxgraph.cisco19.ip_phone;fillColor=#005073;strokeColor=none;fontSize=17;fontColor=#000000;" parent="1" vertex="1">
          <mxGeometry x="131.63" y="645" width="57.49999999999999" height="50" as="geometry" />
        </mxCell>
        <mxCell id="PiK40fZT5rMsHauc214G-37" style="edgeStyle=orthogonalEdgeStyle;rounded=0;orthogonalLoop=1;jettySize=auto;html=1;fontSize=14;fontColor=#FFFFFF;" parent="1" source="PiK40fZT5rMsHauc214G-4" target="PiK40fZT5rMsHauc214G-36" edge="1">
          <mxGeometry relative="1" as="geometry" />
        </mxCell>
        <mxCell id="PiK40fZT5rMsHauc214G-4" value="Fila &lt;br style=&quot;font-size: 12px;&quot;&gt;NOC" style="rounded=1;whiteSpace=wrap;html=1;fontSize=12;fontColor=#ffffff;fillColor=#e51400;strokeColor=#B20000;fontStyle=1" parent="1" vertex="1">
          <mxGeometry x="120.75" y="490" width="79.25" height="40" as="geometry" />
        </mxCell>
        <mxCell id="PiK40fZT5rMsHauc214G-39" style="edgeStyle=orthogonalEdgeStyle;rounded=0;orthogonalLoop=1;jettySize=auto;html=1;fontSize=14;fontColor=#FFFFFF;" parent="1" source="PiK40fZT5rMsHauc214G-7" target="PiK40fZT5rMsHauc214G-36" edge="1">
          <mxGeometry relative="1" as="geometry" />
        </mxCell>
        <mxCell id="PiK40fZT5rMsHauc214G-7" value="Fila &lt;br&gt;CTC" style="rounded=1;whiteSpace=wrap;html=1;fontSize=15;fontColor=#FFFFFF;fillColor=#fa6800;strokeColor=#C73500;fontStyle=1" parent="1" vertex="1">
          <mxGeometry x="300" y="490" width="79.25" height="40" as="geometry" />
        </mxCell>
        <mxCell id="PiK40fZT5rMsHauc214G-8" value="Fila &lt;br&gt;CTR" style="rounded=1;whiteSpace=wrap;html=1;fontSize=15;fontColor=#FFFFFF;fillColor=#fa6800;strokeColor=#C73500;fontStyle=1" parent="1" vertex="1">
          <mxGeometry x="390" y="490" width="79.25" height="40" as="geometry" />
        </mxCell>
        <mxCell id="PiK40fZT5rMsHauc214G-41" style="edgeStyle=orthogonalEdgeStyle;rounded=0;orthogonalLoop=1;jettySize=auto;html=1;fontSize=14;fontColor=#FFFFFF;" parent="1" source="PiK40fZT5rMsHauc214G-9" target="PiK40fZT5rMsHauc214G-36" edge="1">
          <mxGeometry relative="1" as="geometry" />
        </mxCell>
        <mxCell id="PiK40fZT5rMsHauc214G-9" value="Fila &lt;br style=&quot;font-size: 11px;&quot;&gt;Rede Convencional" style="rounded=1;whiteSpace=wrap;html=1;fontSize=11;fontColor=#ffffff;fillColor=#76608a;strokeColor=#432D57;fontStyle=1" parent="1" vertex="1">
          <mxGeometry x="475.88" y="490" width="79.25" height="40" as="geometry" />
        </mxCell>
        <mxCell id="PiK40fZT5rMsHauc214G-40" style="edgeStyle=orthogonalEdgeStyle;rounded=0;orthogonalLoop=1;jettySize=auto;html=1;fontSize=14;fontColor=#FFFFFF;" parent="1" source="PiK40fZT5rMsHauc214G-10" target="PiK40fZT5rMsHauc214G-36" edge="1">
          <mxGeometry relative="1" as="geometry" />
        </mxCell>
        <mxCell id="PiK40fZT5rMsHauc214G-10" value="Fila &lt;br style=&quot;font-size: 12px;&quot;&gt;CTR" style="rounded=1;whiteSpace=wrap;html=1;fontSize=12;fontColor=#FFFFFF;fillColor=#fa6800;strokeColor=#C73500;fontStyle=1" parent="1" vertex="1">
          <mxGeometry x="390" y="490" width="79.25" height="40" as="geometry" />
        </mxCell>
        <mxCell id="PiK40fZT5rMsHauc214G-38" style="edgeStyle=orthogonalEdgeStyle;rounded=0;orthogonalLoop=1;jettySize=auto;html=1;fontSize=14;fontColor=#FFFFFF;" parent="1" source="PiK40fZT5rMsHauc214G-11" target="PiK40fZT5rMsHauc214G-36" edge="1">
          <mxGeometry relative="1" as="geometry" />
        </mxCell>
        <mxCell id="PiK40fZT5rMsHauc214G-11" value="Fila &lt;br style=&quot;font-size: 12px;&quot;&gt;CTC" style="rounded=1;whiteSpace=wrap;html=1;fontSize=12;fontColor=#FFFFFF;fillColor=#fa6800;strokeColor=#C73500;fontStyle=1" parent="1" vertex="1">
          <mxGeometry x="210" y="490" width="79.25" height="40" as="geometry" />
        </mxCell>
        <mxCell id="PiK40fZT5rMsHauc214G-42" style="edgeStyle=orthogonalEdgeStyle;rounded=0;orthogonalLoop=1;jettySize=auto;html=1;fontSize=14;fontColor=#FFFFFF;" parent="1" source="PiK40fZT5rMsHauc214G-12" target="PiK40fZT5rMsHauc214G-36" edge="1">
          <mxGeometry relative="1" as="geometry" />
        </mxCell>
        <mxCell id="PiK40fZT5rMsHauc214G-12" value="Fila &lt;br style=&quot;font-size: 11px&quot;&gt;GPON HUAWEI" style="rounded=1;whiteSpace=wrap;html=1;fontSize=11;fontColor=#ffffff;fillColor=#76608a;strokeColor=#432D57;fontStyle=1" parent="1" vertex="1">
          <mxGeometry x="570" y="490" width="79.25" height="40" as="geometry" />
        </mxCell>
        <mxCell id="PiK40fZT5rMsHauc214G-43" style="edgeStyle=orthogonalEdgeStyle;rounded=0;orthogonalLoop=1;jettySize=auto;html=1;fontSize=14;fontColor=#FFFFFF;" parent="1" source="PiK40fZT5rMsHauc214G-14" target="PiK40fZT5rMsHauc214G-36" edge="1">
          <mxGeometry relative="1" as="geometry" />
        </mxCell>
        <mxCell id="PiK40fZT5rMsHauc214G-14" value="Fila &lt;br style=&quot;font-size: 11px&quot;&gt;GPON Zhone" style="rounded=1;whiteSpace=wrap;html=1;fontSize=11;fontColor=#ffffff;fillColor=#76608a;strokeColor=#432D57;fontStyle=1" parent="1" vertex="1">
          <mxGeometry x="660" y="490" width="79.25" height="40" as="geometry" />
        </mxCell>
        <mxCell id="PiK40fZT5rMsHauc214G-44" style="edgeStyle=orthogonalEdgeStyle;rounded=0;orthogonalLoop=1;jettySize=auto;html=1;fontSize=14;fontColor=#FFFFFF;" parent="1" source="PiK40fZT5rMsHauc214G-16" target="PiK40fZT5rMsHauc214G-36" edge="1">
          <mxGeometry relative="1" as="geometry" />
        </mxCell>
        <mxCell id="PiK40fZT5rMsHauc214G-16" value="Fila &lt;br style=&quot;font-size: 11px&quot;&gt;Habilitar Wifi" style="rounded=1;whiteSpace=wrap;html=1;fontSize=11;fontColor=#ffffff;fillColor=#76608a;strokeColor=#432D57;fontStyle=1" parent="1" vertex="1">
          <mxGeometry x="750" y="490" width="79.25" height="40" as="geometry" />
        </mxCell>
        <mxCell id="PiK40fZT5rMsHauc214G-45" style="edgeStyle=orthogonalEdgeStyle;rounded=0;orthogonalLoop=1;jettySize=auto;html=1;fontSize=14;fontColor=#FFFFFF;" parent="1" source="PiK40fZT5rMsHauc214G-18" target="PiK40fZT5rMsHauc214G-36" edge="1">
          <mxGeometry relative="1" as="geometry" />
        </mxCell>
        <mxCell id="PiK40fZT5rMsHauc214G-18" value="Fila &lt;br style=&quot;font-size: 11px&quot;&gt;Migração em Lote" style="rounded=1;whiteSpace=wrap;html=1;fontSize=11;fontColor=#ffffff;fillColor=#76608a;strokeColor=#432D57;fontStyle=1" parent="1" vertex="1">
          <mxGeometry x="840" y="490" width="79.25" height="40" as="geometry" />
        </mxCell>
        <mxCell id="PiK40fZT5rMsHauc214G-20" style="edgeStyle=orthogonalEdgeStyle;rounded=0;orthogonalLoop=1;jettySize=auto;html=1;entryX=0.5;entryY=1;entryDx=0;entryDy=0;fontSize=14;fontColor=#FFFFFF;" parent="1" source="PiK40fZT5rMsHauc214G-19" target="PiK40fZT5rMsHauc214G-11" edge="1">
          <mxGeometry relative="1" as="geometry" />
        </mxCell>
        <mxCell id="PiK40fZT5rMsHauc214G-19" value="" style="points=[[0.59,0,0],[0.87,0.015,0],[0.88,0.3,0],[0.99,0.99,0],[0.5,1,0],[0.01,0.99,0],[0.075,0.5,0],[0.17,0.115,0]];verticalLabelPosition=bottom;sketch=0;html=1;verticalAlign=top;aspect=fixed;align=center;pointerEvents=1;shape=mxgraph.cisco19.ip_phone;fillColor=#005073;strokeColor=none;fontSize=17;fontColor=#000000;" parent="1" vertex="1">
          <mxGeometry x="220.88" y="645" width="57.49999999999999" height="50" as="geometry" />
        </mxCell>
        <mxCell id="PiK40fZT5rMsHauc214G-22" style="edgeStyle=orthogonalEdgeStyle;rounded=0;orthogonalLoop=1;jettySize=auto;html=1;entryX=0.5;entryY=1;entryDx=0;entryDy=0;fontSize=14;fontColor=#FFFFFF;" parent="1" source="PiK40fZT5rMsHauc214G-21" target="PiK40fZT5rMsHauc214G-7" edge="1">
          <mxGeometry relative="1" as="geometry" />
        </mxCell>
        <mxCell id="PiK40fZT5rMsHauc214G-21" value="" style="points=[[0.59,0,0],[0.87,0.015,0],[0.88,0.3,0],[0.99,0.99,0],[0.5,1,0],[0.01,0.99,0],[0.075,0.5,0],[0.17,0.115,0]];verticalLabelPosition=bottom;sketch=0;html=1;verticalAlign=top;aspect=fixed;align=center;pointerEvents=1;shape=mxgraph.cisco19.ip_phone;fillColor=#005073;strokeColor=none;fontSize=17;fontColor=#000000;" parent="1" vertex="1">
          <mxGeometry x="310.88" y="645" width="57.49999999999999" height="50" as="geometry" />
        </mxCell>
        <mxCell id="PiK40fZT5rMsHauc214G-34" style="edgeStyle=orthogonalEdgeStyle;rounded=0;orthogonalLoop=1;jettySize=auto;html=1;entryX=0.5;entryY=1;entryDx=0;entryDy=0;fontSize=14;fontColor=#FFFFFF;" parent="1" source="PiK40fZT5rMsHauc214G-23" target="PiK40fZT5rMsHauc214G-10" edge="1">
          <mxGeometry relative="1" as="geometry" />
        </mxCell>
        <mxCell id="PiK40fZT5rMsHauc214G-23" value="" style="points=[[0.59,0,0],[0.87,0.015,0],[0.88,0.3,0],[0.99,0.99,0],[0.5,1,0],[0.01,0.99,0],[0.075,0.5,0],[0.17,0.115,0]];verticalLabelPosition=bottom;sketch=0;html=1;verticalAlign=top;aspect=fixed;align=center;pointerEvents=1;shape=mxgraph.cisco19.ip_phone;fillColor=#005073;strokeColor=none;fontSize=17;fontColor=#000000;" parent="1" vertex="1">
          <mxGeometry x="400.87" y="645" width="57.49999999999999" height="50" as="geometry" />
        </mxCell>
        <mxCell id="PiK40fZT5rMsHauc214G-33" style="edgeStyle=orthogonalEdgeStyle;rounded=0;orthogonalLoop=1;jettySize=auto;html=1;fontSize=14;fontColor=#FFFFFF;" parent="1" source="PiK40fZT5rMsHauc214G-24" target="PiK40fZT5rMsHauc214G-9" edge="1">
          <mxGeometry relative="1" as="geometry" />
        </mxCell>
        <mxCell id="PiK40fZT5rMsHauc214G-35" style="edgeStyle=orthogonalEdgeStyle;rounded=0;orthogonalLoop=1;jettySize=auto;html=1;entryX=0;entryY=1;entryDx=0;entryDy=0;fontSize=14;fontColor=#FFFFFF;exitX=0.87;exitY=0.015;exitDx=0;exitDy=0;exitPerimeter=0;" parent="1" source="PiK40fZT5rMsHauc214G-24" target="PiK40fZT5rMsHauc214G-12" edge="1">
          <mxGeometry relative="1" as="geometry" />
        </mxCell>
        <mxCell id="PiK40fZT5rMsHauc214G-24" value="" style="points=[[0.59,0,0],[0.87,0.015,0],[0.88,0.3,0],[0.99,0.99,0],[0.5,1,0],[0.01,0.99,0],[0.075,0.5,0],[0.17,0.115,0]];verticalLabelPosition=bottom;sketch=0;html=1;verticalAlign=top;aspect=fixed;align=center;pointerEvents=1;shape=mxgraph.cisco19.ip_phone;fillColor=#005073;strokeColor=none;fontSize=17;fontColor=#000000;" parent="1" vertex="1">
          <mxGeometry x="486.75" y="645" width="57.49999999999999" height="50" as="geometry" />
        </mxCell>
        <mxCell id="PiK40fZT5rMsHauc214G-32" style="edgeStyle=orthogonalEdgeStyle;rounded=0;orthogonalLoop=1;jettySize=auto;html=1;entryX=0.5;entryY=1;entryDx=0;entryDy=0;fontSize=14;fontColor=#FFFFFF;" parent="1" source="PiK40fZT5rMsHauc214G-25" target="PiK40fZT5rMsHauc214G-12" edge="1">
          <mxGeometry relative="1" as="geometry" />
        </mxCell>
        <mxCell id="1ANR2XGOgA5wHceNcDut-1" style="edgeStyle=orthogonalEdgeStyle;rounded=0;orthogonalLoop=1;jettySize=auto;html=1;entryX=0;entryY=1;entryDx=0;entryDy=0;fontSize=13;fontColor=#FFFFFF;exitX=0.87;exitY=0.015;exitDx=0;exitDy=0;exitPerimeter=0;" edge="1" parent="1" source="PiK40fZT5rMsHauc214G-25" target="PiK40fZT5rMsHauc214G-14">
          <mxGeometry relative="1" as="geometry" />
        </mxCell>
        <mxCell id="PiK40fZT5rMsHauc214G-25" value="" style="points=[[0.59,0,0],[0.87,0.015,0],[0.88,0.3,0],[0.99,0.99,0],[0.5,1,0],[0.01,0.99,0],[0.075,0.5,0],[0.17,0.115,0]];verticalLabelPosition=bottom;sketch=0;html=1;verticalAlign=top;aspect=fixed;align=center;pointerEvents=1;shape=mxgraph.cisco19.ip_phone;fillColor=#005073;strokeColor=none;fontSize=17;fontColor=#000000;" parent="1" vertex="1">
          <mxGeometry x="580.87" y="645" width="57.49999999999999" height="50" as="geometry" />
        </mxCell>
        <mxCell id="PiK40fZT5rMsHauc214G-31" style="edgeStyle=orthogonalEdgeStyle;rounded=0;orthogonalLoop=1;jettySize=auto;html=1;fontSize=14;fontColor=#FFFFFF;" parent="1" source="PiK40fZT5rMsHauc214G-26" target="PiK40fZT5rMsHauc214G-14" edge="1">
          <mxGeometry relative="1" as="geometry" />
        </mxCell>
        <mxCell id="PiK40fZT5rMsHauc214G-26" value="" style="points=[[0.59,0,0],[0.87,0.015,0],[0.88,0.3,0],[0.99,0.99,0],[0.5,1,0],[0.01,0.99,0],[0.075,0.5,0],[0.17,0.115,0]];verticalLabelPosition=bottom;sketch=0;html=1;verticalAlign=top;aspect=fixed;align=center;pointerEvents=1;shape=mxgraph.cisco19.ip_phone;fillColor=#005073;strokeColor=none;fontSize=17;fontColor=#000000;" parent="1" vertex="1">
          <mxGeometry x="670.88" y="645" width="57.49999999999999" height="50" as="geometry" />
        </mxCell>
        <mxCell id="PiK40fZT5rMsHauc214G-30" style="edgeStyle=orthogonalEdgeStyle;rounded=0;orthogonalLoop=1;jettySize=auto;html=1;entryX=0.5;entryY=1;entryDx=0;entryDy=0;fontSize=14;fontColor=#FFFFFF;" parent="1" source="PiK40fZT5rMsHauc214G-27" target="PiK40fZT5rMsHauc214G-16" edge="1">
          <mxGeometry relative="1" as="geometry" />
        </mxCell>
        <mxCell id="PiK40fZT5rMsHauc214G-27" value="" style="points=[[0.59,0,0],[0.87,0.015,0],[0.88,0.3,0],[0.99,0.99,0],[0.5,1,0],[0.01,0.99,0],[0.075,0.5,0],[0.17,0.115,0]];verticalLabelPosition=bottom;sketch=0;html=1;verticalAlign=top;aspect=fixed;align=center;pointerEvents=1;shape=mxgraph.cisco19.ip_phone;fillColor=#005073;strokeColor=none;fontSize=17;fontColor=#000000;" parent="1" vertex="1">
          <mxGeometry x="760.87" y="645" width="57.49999999999999" height="50" as="geometry" />
        </mxCell>
        <mxCell id="PiK40fZT5rMsHauc214G-29" style="edgeStyle=orthogonalEdgeStyle;rounded=0;orthogonalLoop=1;jettySize=auto;html=1;entryX=0.5;entryY=1;entryDx=0;entryDy=0;fontSize=14;fontColor=#FFFFFF;" parent="1" source="PiK40fZT5rMsHauc214G-28" target="PiK40fZT5rMsHauc214G-18" edge="1">
          <mxGeometry relative="1" as="geometry" />
        </mxCell>
        <mxCell id="PiK40fZT5rMsHauc214G-28" value="" style="points=[[0.59,0,0],[0.87,0.015,0],[0.88,0.3,0],[0.99,0.99,0],[0.5,1,0],[0.01,0.99,0],[0.075,0.5,0],[0.17,0.115,0]];verticalLabelPosition=bottom;sketch=0;html=1;verticalAlign=top;aspect=fixed;align=center;pointerEvents=1;shape=mxgraph.cisco19.ip_phone;fillColor=#005073;strokeColor=none;fontSize=17;fontColor=#000000;" parent="1" vertex="1">
          <mxGeometry x="850.87" y="645" width="57.49999999999999" height="50" as="geometry" />
        </mxCell>
        <mxCell id="PiK40fZT5rMsHauc214G-46" style="edgeStyle=orthogonalEdgeStyle;rounded=0;orthogonalLoop=1;jettySize=auto;html=1;fontSize=14;fontColor=#FFFFFF;" parent="1" source="PiK40fZT5rMsHauc214G-36" target="PiK40fZT5rMsHauc214G-2" edge="1">
          <mxGeometry relative="1" as="geometry" />
        </mxCell>
        <mxCell id="PiK40fZT5rMsHauc214G-36" value="" style="line;strokeWidth=4;html=1;perimeter=backbonePerimeter;points=[];outlineConnect=0;fontSize=14;fontColor=#FFFFFF;" parent="1" vertex="1">
          <mxGeometry x="121" y="390" width="789" height="10" as="geometry" />
        </mxCell>
        <mxCell id="1ANR2XGOgA5wHceNcDut-2" value="&lt;b&gt;&lt;font style=&quot;font-size: 17px&quot; color=&quot;#000000&quot;&gt;SIPPulse&lt;/font&gt;&lt;/b&gt;" style="sketch=0;pointerEvents=1;shadow=0;dashed=0;html=1;strokeColor=#006EAF;fillColor=#1ba1e2;labelPosition=center;verticalLabelPosition=bottom;verticalAlign=top;outlineConnect=0;align=left;shape=mxgraph.office.devices.ip_pbx;fontColor=#ffffff;" vertex="1" parent="1">
          <mxGeometry x="1280" y="200" width="130" height="80" as="geometry" />
        </mxCell>
      </root>
    </mxGraphModel>
  </diagram>
</mxfile>
